<?xml version="1.0" standalone="no"?>
<!DOCTYPE svg PUBLIC "-//W3C//DTD SVG 20010904//EN"
 "http://www.w3.org/TR/2001/REC-SVG-20010904/DTD/svg10.dtd">
<svg version="1.0" xmlns="http://www.w3.org/2000/svg"
 width="697.000000pt" height="764.000000pt" viewBox="0 0 697.000000 764.000000"
 preserveAspectRatio="xMidYMid meet">

<g transform="translate(0.000000,764.000000) scale(0.100000,-0.100000)"
fill="#000000" stroke="none">
<path d="M0 6333 c0 -718 2 -1304 4 -1302 2 2 22 49 45 103 323 760 921 1417
1376 1511 322 66 713 -189 900 -589 82 -175 103 -325 64 -452 -126 -409 -636
-909 -1034 -1015 -141 -37 -421 -25 -564 26 l-41 14 -16 -37 c-26 -62 -92
-285 -111 -374 -10 -48 -18 -127 -18 -188 0 -94 3 -110 25 -149 42 -75 66 -86
178 -84 297 5 688 208 1132 587 134 115 566 548 734 737 l128 144 115 260
c225 510 333 806 364 1000 17 107 43 135 122 135 108 0 242 -60 379 -169 138
-109 213 -217 212 -306 -1 -82 -114 -403 -403 -1144 -72 -184 -129 -336 -128
-338 2 -1 48 66 103 150 118 180 631 927 764 1112 103 143 305 414 385 515 28
36 56 83 63 106 15 53 41 75 95 81 128 15 335 -95 495 -261 96 -100 117 -147
110 -239 -10 -118 -146 -496 -518 -1437 -12 -30 -17 -50 -12 -45 5 6 78 109
162 230 509 731 936 1298 1186 1575 173 192 184 202 243 208 91 8 261 -65 393
-170 l38 -30 0 571 0 571 -3485 0 -3485 0 0 -1307z"/>
<path d="M1702 6154 c-90 -45 -244 -214 -380 -416 -117 -174 -340 -564 -329
-575 12 -11 204 63 280 109 208 125 419 352 522 561 70 143 91 248 60 306 -25
50 -74 54 -153 15z"/>
<path d="M4412 5573 c-507 -717 -1202 -1761 -1309 -1966 -10 -20 -15 -52 -14
-83 4 -101 -67 -134 -213 -100 -197 46 -428 213 -505 364 -68 133 -56 303 39
559 22 61 40 113 40 115 0 3 -67 -61 -148 -141 -386 -380 -769 -663 -1065
-788 -194 -82 -395 -111 -543 -80 -202 43 -451 192 -627 375 l-67 70 0 -1934
0 -1934 3485 0 3485 0 0 1971 0 1971 -122 -127 c-268 -279 -476 -430 -654
-475 -68 -18 -82 -18 -153 -6 -158 28 -300 103 -423 226 -113 112 -150 185
-156 306 -11 199 54 382 473 1349 179 414 174 400 134 355 -125 -143 -965
-1179 -1111 -1370 -185 -243 -228 -309 -228 -352 0 -59 -34 -88 -103 -88 -153
0 -365 114 -488 262 -80 97 -102 153 -107 274 -8 199 49 377 356 1107 55 130
98 237 96 237 -2 0 -34 -44 -72 -97z m-1212 -3176 c33 -11 35 -15 38 -63 l3
-52 -42 21 c-24 12 -68 23 -98 25 -115 8 -191 -69 -191 -191 0 -115 63 -187
161 -187 83 0 89 5 89 71 l0 58 -52 3 -53 3 0 40 0 40 98 3 97 3 0 -129 0
-128 -37 -19 c-53 -25 -195 -32 -244 -11 -97 41 -149 125 -149 242 0 138 56
225 175 271 39 15 160 15 205 0z m-1487 -250 c54 -139 97 -258 97 -265 0 -8
-16 -12 -44 -12 l-44 0 -25 68 -25 67 -98 0 -99 0 -24 -67 -23 -68 -44 0 c-29
0 -44 4 -44 13 0 7 43 124 95 261 52 137 95 251 95 253 0 1 20 3 43 3 l44 0
96 -253z m404 233 c42 -25 63 -68 63 -125 0 -55 -12 -81 -51 -115 l-28 -25 74
-115 c41 -63 74 -118 74 -122 1 -5 -21 -8 -49 -8 l-49 0 -57 96 c-61 101 -88
128 -126 122 -22 -3 -23 -7 -26 -111 l-3 -108 -42 3 -42 3 -3 250 c-1 137 0
255 3 262 3 10 35 13 117 13 94 0 118 -3 145 -20z m483 -20 l0 -40 -70 0 -70
0 0 -226 0 -225 -42 3 -43 3 -3 223 -2 222 -70 0 -70 0 0 40 0 40 185 0 185 0
0 -40z m1054 -212 c53 -139 96 -259 96 -265 0 -9 -15 -13 -44 -13 l-44 0 -25
68 -25 67 -97 0 -98 0 -25 -67 -25 -68 -43 0 c-28 0 -44 4 -44 12 0 7 43 126
96 265 l97 253 42 0 42 0 97 -252z m226 32 l0 -220 100 0 100 0 0 -45 0 -45
-140 0 -140 0 0 265 0 265 40 0 40 0 0 -220z m340 0 l0 -220 101 0 100 0 -3
-42 -3 -43 -142 -3 -143 -3 0 266 0 265 45 0 45 0 0 -220z m530 180 l0 -40
-100 0 -100 0 0 -65 0 -65 90 0 90 0 0 -45 0 -45 -90 0 -90 0 0 -70 0 -70 105
0 105 0 0 -45 0 -45 -145 0 -145 0 0 265 0 265 140 0 140 0 0 -40z m337 20
c42 -25 63 -68 63 -125 0 -55 -12 -81 -51 -115 l-28 -25 74 -115 c41 -63 74
-118 74 -122 1 -5 -21 -8 -49 -8 l-49 0 -56 95 c-59 100 -89 129 -127 123 -22
-3 -23 -7 -26 -110 l-3 -108 -39 0 -40 0 0 265 0 265 113 0 c93 0 117 -3 144
-20z m253 -90 c30 -60 57 -110 60 -110 3 0 30 50 60 110 l54 110 49 0 49 0
-86 -164 -86 -165 0 -101 0 -101 -42 3 -43 3 -5 105 -5 105 -78 152 c-42 84
-77 155 -77 158 0 3 22 5 48 5 l48 0 54 -110z m-2246 -849 c16 -14 23 -91 9
-91 -5 0 -26 7 -48 15 -93 33 -191 3 -232 -70 -31 -55 -32 -161 -2 -215 43
-76 146 -102 238 -60 24 11 45 20 47 20 2 0 4 -20 4 -44 0 -42 -2 -45 -40 -60
-56 -22 -173 -21 -225 3 -47 21 -98 76 -121 129 -10 23 -16 67 -16 115 -1 67
4 86 28 134 32 62 81 107 140 129 48 18 195 14 218 -5z m311 -8 c34 -86 186
-487 188 -496 1 -8 -13 -12 -43 -12 l-45 0 -26 65 -26 65 -98 0 -97 0 -25 -67
-25 -68 -44 0 c-24 0 -44 5 -44 10 0 6 44 125 97 265 l96 255 43 0 c31 0 44
-5 49 -17z m515 -23 l0 -40 -100 0 -101 0 3 -67 3 -68 88 -3 87 -3 0 -39 0
-39 -87 -3 -88 -3 -3 -112 -3 -113 -39 0 -40 0 0 265 0 265 140 0 140 0 0 -40z
m350 0 l0 -40 -100 0 -101 0 3 -67 3 -68 88 -3 87 -3 0 -39 0 -40 -90 0 -90 0
0 -70 0 -70 106 0 105 0 -3 -42 -3 -43 -145 0 -145 0 -3 263 -2 262 145 0 145
0 0 -40z"/>
<path d="M2985 2361 c-49 -23 -99 -74 -119 -123 -10 -23 -16 -66 -16 -110 1
-91 28 -150 89 -193 40 -28 48 -30 134 -30 51 0 104 6 120 12 l27 13 0 105 0
106 -65 -3 c-79 -4 -91 -22 -17 -26 l52 -3 0 -84 0 -84 -42 -12 c-105 -28
-207 11 -247 93 -30 63 -29 167 3 228 46 90 161 133 264 97 36 -12 42 -13 42
-1 0 37 -156 47 -225 15z"/>
<path d="M1465 2140 c-48 -127 -85 -233 -82 -237 13 -13 34 19 52 77 l18 61
120 -3 120 -3 21 -57 c23 -60 41 -86 52 -75 3 3 -33 110 -82 236 -77 204 -90
231 -109 231 -19 0 -33 -27 -110 -230z m132 163 c6 -21 27 -82 47 -135 l36
-98 -106 0 c-81 0 -105 3 -102 13 3 6 25 67 49 134 24 68 49 123 54 123 6 0
16 -17 22 -37z"/>
<path d="M1571 2269 c-1 -3 -14 -42 -31 -87 l-30 -82 64 0 64 0 -23 63 c-30
81 -44 113 -44 106z"/>
<path d="M1884 2357 c-2 -7 -3 -111 -2 -231 2 -161 6 -220 15 -223 9 -3 13 24
15 104 l3 108 53 0 c64 -1 82 -17 150 -130 44 -73 72 -102 72 -76 0 17 -79
141 -112 176 -31 35 -36 55 -12 55 9 0 31 15 50 34 29 29 34 41 34 81 0 91
-35 115 -170 115 -64 0 -92 -4 -96 -13z m212 -40 c15 -18 24 -41 24 -62 0 -79
-46 -115 -149 -115 l-61 0 0 106 0 106 81 -4 c74 -3 83 -6 105 -31z"/>
<path d="M1940 2245 l0 -75 49 0 c67 0 101 27 101 80 0 51 -27 70 -97 70 l-53
0 0 -75z"/>
<path d="M2260 2360 c0 -6 30 -10 70 -10 l70 0 2 -222 c2 -166 6 -222 16 -226
9 -3 12 46 12 222 l0 226 70 0 c40 0 70 4 70 10 0 6 -58 10 -155 10 -97 0
-155 -4 -155 -10z"/>
<path d="M3405 2140 c-48 -127 -85 -233 -82 -237 13 -13 34 19 52 77 l18 61
120 -3 120 -3 21 -57 c23 -60 41 -86 52 -75 4 3 -33 110 -81 237 -78 203 -91
230 -110 230 -20 0 -32 -27 -110 -230z m128 178 c2 -13 23 -74 45 -135 l41
-113 -105 0 c-81 0 -105 3 -102 13 3 6 25 67 49 134 43 120 62 146 72 101z"/>
<path d="M3511 2269 c-1 -3 -14 -42 -31 -87 l-30 -82 64 0 64 0 -23 63 c-30
81 -44 113 -44 106z"/>
<path d="M3830 2135 l0 -235 110 0 c91 0 110 3 110 15 0 12 -18 15 -100 15
l-100 0 0 220 c0 140 -4 220 -10 220 -6 0 -10 -85 -10 -235z"/>
<path d="M4160 2135 l0 -236 112 3 c78 2 113 7 116 16 3 9 -21 12 -97 12
l-101 0 0 220 c0 189 -2 220 -15 220 -13 0 -15 -33 -15 -235z"/>
<path d="M4494 2357 c-2 -7 -3 -111 -2 -232 l3 -220 118 -3 c100 -2 117 0 117
13 0 12 -17 15 -105 15 l-105 0 0 100 0 100 90 0 c73 0 90 3 90 15 0 12 -17
15 -90 15 l-90 0 0 95 0 95 100 0 c60 0 100 4 100 10 0 16 -219 13 -226 -3z"/>
<path d="M4854 2357 c-2 -7 -3 -111 -2 -231 2 -161 6 -220 15 -223 9 -3 13 24
15 104 l3 108 53 0 c64 -1 82 -17 150 -130 44 -73 72 -102 72 -76 0 17 -79
141 -112 176 -15 17 -28 35 -28 40 0 6 17 18 38 27 47 22 64 49 64 103 0 90
-38 115 -172 115 -64 0 -92 -4 -96 -13z m212 -40 c15 -18 24 -41 24 -62 0 -79
-46 -115 -149 -115 l-61 0 0 106 0 106 81 -4 c74 -3 83 -6 105 -31z"/>
<path d="M4910 2245 l0 -75 49 0 c67 0 101 27 101 80 0 51 -27 70 -97 70 l-53
0 0 -75z"/>
<path d="M5240 2365 c0 -3 30 -65 67 -138 67 -130 68 -134 73 -226 3 -63 9
-96 18 -99 9 -3 12 18 12 84 l0 89 76 147 c45 90 70 148 62 148 -7 0 -42 -56
-78 -125 -36 -69 -69 -125 -75 -124 -5 0 -37 56 -69 125 -33 68 -66 124 -73
124 -7 0 -13 -2 -13 -5z"/>
<path d="M2861 1404 c-92 -46 -143 -159 -121 -272 16 -87 47 -131 119 -167 55
-28 250 -11 220 20 -3 2 -23 0 -44 -6 -101 -28 -204 12 -244 93 -29 61 -29
165 0 226 41 83 138 127 236 105 24 -6 46 -7 49 -2 9 16 -35 29 -98 29 -49 0
-76 -6 -117 -26z"/>
<path d="M3246 1189 c-48 -127 -85 -233 -82 -237 11 -10 30 17 52 76 l21 57
118 0 118 0 26 -64 c23 -58 51 -91 51 -61 0 8 -103 283 -165 443 -4 9 -17 17
-29 17 -20 0 -32 -26 -110 -231z m162 81 c24 -67 45 -127 49 -135 4 -13 -12
-15 -102 -15 -59 0 -105 4 -103 8 2 5 23 65 48 135 25 70 49 127 55 127 5 0
29 -54 53 -120z"/>
<path d="M3350 1317 c0 -3 -13 -42 -30 -86 l-29 -81 64 0 64 0 -30 82 c-28 76
-39 100 -39 85z"/>
<path d="M3670 1184 c0 -184 3 -235 13 -232 8 3 13 38 15 116 l3 112 84 0 c50
0 85 4 85 10 0 6 -35 10 -85 10 l-85 0 0 100 0 100 95 0 c57 0 95 4 95 10 0 6
-43 10 -110 10 l-110 0 0 -236z"/>
<path d="M4012 1188 l3 -233 114 0 c83 0 115 3 119 13 3 9 -22 12 -102 12
l-106 0 0 100 0 100 90 0 c73 0 90 3 90 15 0 12 -17 15 -90 15 l-90 0 0 95 0
95 100 0 c60 0 100 4 100 10 0 6 -45 10 -115 10 l-115 0 2 -232z"/>
<path d="M6941 5593 c-13 -38 -62 -167 -108 -288 -296 -769 -495 -1292 -522
-1371 -34 -101 -39 -155 -15 -178 22 -22 50 -20 114 10 70 32 309 271 458 457
l102 127 0 655 c0 360 -1 655 -3 655 -1 0 -13 -30 -26 -67z"/>
</g>
</svg>
